<svg width="15" height="15" viewBox="0 0 15 15" fill="none" xmlns="http://www.w3.org/2000/svg">
<path d="M6.79692 0.88078L6.79692 2.46469C6.79692 2.55464 6.83581 2.64068 6.90386 2.7013L11.8095 6.98178L0.86075 6.98178C0.775197 6.98178 0.7052 7.05218 0.7052 7.13822L0.7052 8.31149C0.7052 8.39753 0.775197 8.46793 0.86075 8.46793L11.8095 8.46792L6.90386 12.7484C6.83581 12.8071 6.79692 12.8931 6.79692 12.985L6.79692 14.5689C6.79692 14.7019 6.95442 14.7743 7.05358 14.6863L14.4908 8.19612C14.5581 8.13745 14.6121 8.06492 14.6491 7.98344C14.6861 7.90197 14.7052 7.81344 14.7052 7.72388C14.7052 7.63431 14.6861 7.54579 14.6491 7.46431C14.6121 7.38283 14.5581 7.3103 14.4908 7.25163L7.05358 0.763452C6.95247 0.675458 6.79692 0.747809 6.79692 0.88078Z" fill="white"/>
</svg>
