<svg width="17" height="17" viewBox="0 0 17 17" fill="none" xmlns="http://www.w3.org/2000/svg">
<path d="M16.2374 12.2853L15.4874 15.4415C15.3936 15.9103 15.0186 16.2228 14.5499 16.2228C6.6749 16.1915 0.268646 9.78528 0.268646 1.91028C0.268646 1.44153 0.549896 1.06653 1.01865 0.972778L4.1749 0.222778C4.6124 0.129028 5.08115 0.379028 5.26865 0.785278L6.7374 4.19153C6.89365 4.59778 6.7999 5.06653 6.45615 5.31653L4.76865 6.69153C5.83115 8.84778 7.58115 10.5978 9.76865 11.6603L11.1436 9.97278C11.3936 9.66028 11.8624 9.53528 12.2686 9.69153L15.6749 11.1603C16.0811 11.379 16.3311 11.8478 16.2374 12.2853Z" fill="#808080"/>
</svg>
